<svg width="1845" height="901" viewBox="0 0 1845 901" fill="none" xmlns="http://www.w3.org/2000/svg">
<mask id="mask0_517_182" style="mask-type:alpha" maskUnits="userSpaceOnUse" x="0" y="0" width="1845" height="901">
<rect width="1844.1" height="900.233" rx="32" fill="black"/>
</mask>
<g mask="url(#mask0_517_182)">
<path d="M15.8069 504.742C9.29739 489.949 2.65182 450.793 2.65182 363.134C2.65182 202.071 13.4208 141.278 78.0344 129.041C142.648 116.803 116.324 -86.8942 222.418 -105.053C328.512 -123.212 498.821 -315.067 624.857 -220.718C750.893 -126.37 910.832 -274.011 1042.85 -141.766C1174.87 -9.52065 1216.35 28.3765 1216.35 -79.3935C1216.35 -187.163 1357.94 -127.949 1403.81 -94.3944C1447.31 -62.5701 1803.31 36.0121 1821.53 -34.3957M15.8069 504.742C7.14433 500.64 -7.67313 499.844 -29.655 511.96C-70.4806 534.461 -58.771 886.194 34.9586 805.663C128.688 725.131 458.936 895.274 488.052 943.829C517.168 992.385 918.41 1021.6 890.491 904.353C862.571 787.109 1058.01 936.329 1297.72 913.433C1417.77 988.043 1494.35 893.694 1600.44 895.274C1706.54 896.853 1672.63 691.576 1801.46 543.935C1930.29 396.295 1626.37 191.413 1759.98 243.127C1860.13 281.887 1832.56 46.3201 1821.53 -34.3957M15.8069 504.742C18.8658 511.693 21.8946 513.264 24.1897 511.96C22.7708 509.507 20.0151 506.734 15.8069 504.742ZM1821.53 -34.3957C1817.85 -61.3701 1816.01 -71.0502 1821.41 -47.4178C1822.52 -42.5522 1822.52 -38.2241 1821.53 -34.3957Z" stroke="url(#paint0_linear_517_182)" stroke-width="2"/>
<path d="M311.898 469.173C307.201 460.547 302.405 437.714 302.405 386.598C302.405 292.677 310.176 257.227 356.803 250.091C403.431 242.954 384.434 124.172 460.995 113.583C537.556 102.994 660.457 -8.88189 751.409 46.1354C842.361 101.153 957.778 15.0588 1053.05 92.175C1148.32 169.291 1178.25 191.39 1178.25 128.546C1178.25 65.7023 1280.43 100.232 1313.53 119.799C1344.92 138.357 1601.82 195.843 1614.97 154.786M311.898 469.173C305.647 466.781 294.954 466.317 279.091 473.382C249.63 486.503 258.08 691.61 325.719 644.65C393.357 597.689 631.674 696.904 652.685 725.219C673.697 753.533 963.246 770.568 943.099 702.199C922.951 633.83 1063.98 720.845 1236.97 707.494C1323.6 751.001 1378.86 695.984 1455.42 696.904C1531.98 697.825 1507.52 578.122 1600.49 492.028C1693.45 405.935 1474.13 286.462 1570.55 316.618C1642.82 339.22 1622.93 201.854 1614.97 154.786M311.898 469.173C314.105 473.227 316.291 474.143 317.947 473.382C316.923 471.952 314.935 470.335 311.898 469.173ZM1614.97 154.786C1612.31 139.056 1610.98 133.412 1614.88 147.192C1615.68 150.03 1615.68 152.553 1614.97 154.786Z" stroke="white" stroke-width="2"/>
<path d="M25.3582 503.594C18.9072 489.001 12.3213 450.371 12.3213 363.891C12.3213 204.994 22.9935 145.018 87.0269 132.945C151.06 120.872 124.973 -80.0858 230.114 -98.0006C335.255 -115.915 504.035 -305.19 628.939 -212.11C753.844 -119.031 912.346 -264.686 1043.18 -134.22C1174.01 -3.75271 1215.12 33.6348 1215.12 -72.6859C1215.12 -179.007 1355.44 -120.589 1400.9 -87.4852C1444.01 -56.0888 1796.81 41.1678 1814.87 -28.2932M25.3582 503.594C16.7734 499.547 2.08904 498.762 -19.6954 510.715C-60.1544 532.913 -48.55 879.917 44.338 800.468C137.226 721.02 464.508 888.874 493.362 936.777C522.217 984.68 919.857 1013.5 892.188 897.832C864.519 782.164 1058.2 929.377 1295.76 906.789C1414.73 980.396 1490.62 887.317 1595.77 888.874C1700.91 890.432 1667.31 687.916 1794.98 542.261C1922.65 396.605 1621.46 194.479 1753.87 245.497C1853.12 283.737 1825.8 51.3371 1814.87 -28.2932M25.3582 503.594C28.3896 510.451 31.3913 512.001 33.6658 510.715C32.2596 508.296 29.5286 505.56 25.3582 503.594ZM1814.87 -28.2932C1811.22 -54.9049 1809.4 -64.4549 1814.74 -41.1402C1815.84 -36.34 1815.85 -32.0702 1814.87 -28.2932Z" stroke="#FECD0E" stroke-width="2"/>
<path d="M34.9096 502.446C28.517 488.052 21.9907 449.949 21.9907 364.648C21.9907 207.917 32.5663 148.758 96.0195 136.85C159.473 124.941 133.621 -73.2774 237.81 -90.948C341.999 -108.619 509.249 -295.313 633.022 -203.502C756.795 -111.692 913.861 -255.362 1043.51 -126.673C1173.16 2.01523 1213.89 38.8931 1213.89 -65.9784C1213.89 -170.85 1352.94 -113.228 1397.99 -80.5759C1440.71 -49.6075 1790.31 46.3234 1808.21 -22.1908M34.9096 502.446C26.4026 498.455 11.8512 497.681 -9.73586 509.47C-49.8282 531.366 -38.329 873.64 53.7173 795.274C145.764 716.909 470.08 882.475 498.673 929.725C527.266 976.975 921.303 1005.4 893.885 891.31C866.467 777.219 1058.39 922.426 1293.8 900.146C1411.69 972.749 1486.9 880.939 1591.09 882.475C1695.28 884.012 1661.98 684.256 1788.5 540.586C1915.01 396.916 1616.55 197.545 1747.76 247.868C1846.11 285.586 1819.03 56.3542 1808.21 -22.1908M34.9096 502.446C37.9135 509.21 40.8879 510.739 43.1418 509.47C41.7484 507.084 39.0422 504.385 34.9096 502.446ZM1808.21 -22.1908C1804.59 -48.4397 1802.78 -57.8595 1808.08 -34.8627C1809.17 -30.1279 1809.18 -25.9163 1808.21 -22.1908Z" stroke="#FECE16" stroke-width="2"/>
<path d="M44.4609 501.3C38.1267 487.104 31.6602 449.528 31.6602 365.405C31.6602 210.84 42.139 152.499 105.012 140.755C167.885 129.012 142.27 -66.468 245.506 -83.8945C348.742 -101.321 514.463 -285.435 637.104 -194.893C759.745 -104.352 915.375 -246.036 1043.84 -119.126C1172.3 7.78414 1212.66 44.1524 1212.66 -59.2699C1212.66 -162.692 1350.44 -105.867 1395.07 -73.6656C1437.4 -43.1252 1783.81 51.48 1801.54 -16.0874M44.4609 501.3C36.0317 497.363 21.6134 496.6 0.2237 508.227C-39.5021 529.82 -28.108 867.364 63.0967 790.081C154.301 712.799 475.652 876.077 503.984 922.674C532.316 969.271 922.749 997.305 895.582 884.79C868.415 772.276 1058.59 915.476 1291.84 893.503C1408.66 965.103 1483.17 874.562 1586.41 876.077C1689.64 877.592 1656.66 680.597 1782.01 538.913C1907.37 397.228 1611.64 200.612 1741.65 250.239C1839.1 287.436 1812.27 61.3722 1801.54 -16.0874M44.4609 501.3C47.4374 507.97 50.3846 509.478 52.6179 508.227C51.2372 505.873 48.5557 503.212 44.4609 501.3ZM1801.54 -16.0874C1797.96 -41.9736 1796.17 -51.2632 1801.42 -28.5841C1802.5 -23.9148 1802.51 -19.7614 1801.54 -16.0874Z" stroke="#FED01E" stroke-width="2"/>
<path d="M54.0122 500.152C47.7365 486.156 41.3297 449.106 41.3297 366.162C41.3297 213.763 51.7118 156.239 114.005 144.66C176.297 133.081 150.919 -59.6596 253.202 -76.8419C355.485 -94.0241 519.677 -275.559 641.186 -186.285C762.696 -97.0124 916.89 -236.712 1044.17 -111.58C1171.44 13.5521 1211.43 49.4108 1211.43 -52.5623C1211.43 -154.535 1347.94 -98.5063 1392.16 -66.7564C1434.1 -36.6439 1777.31 56.6357 1794.88 -9.98494M54.0122 500.152C45.6608 496.271 31.3756 495.518 10.1833 506.982C-29.1759 528.273 -17.887 861.087 72.4761 784.887C162.839 708.687 481.225 869.678 509.295 915.622C537.365 961.566 924.196 989.207 897.279 878.269C870.362 767.331 1058.78 908.525 1289.88 886.86C1405.62 957.457 1479.45 868.184 1581.73 869.678C1684.01 871.172 1651.33 676.937 1775.53 537.238C1899.73 397.539 1606.72 203.678 1735.54 252.61C1832.09 289.285 1805.51 66.3892 1794.88 -9.98494M54.0122 500.152C56.9612 506.729 59.8812 508.216 62.0939 506.982C60.726 504.662 58.0693 502.038 54.0122 500.152ZM1794.88 -9.98494C1791.33 -35.5084 1789.56 -44.6678 1794.76 -22.3066C1795.83 -17.7027 1795.84 -13.6074 1794.88 -9.98494Z" stroke="#FED226" stroke-width="2"/>
<path d="M63.5636 499.005C57.3463 485.207 50.9991 448.684 50.9991 366.919C50.9991 216.685 61.2846 159.98 122.997 148.565C184.71 137.15 159.568 -52.8512 260.898 -69.7892C362.229 -86.7273 524.891 -265.682 645.269 -177.677C765.646 -89.6731 918.404 -227.387 1044.5 -104.033C1170.59 19.32 1210.21 54.6691 1210.21 -45.8548C1210.21 -146.379 1345.44 -91.1458 1389.25 -59.8471C1430.8 -30.1626 1770.81 61.7913 1788.22 -3.88251M63.5636 499.005C55.2899 495.179 41.1377 494.437 20.1428 505.737C-18.8498 526.726 -7.66595 854.809 81.8554 779.693C171.377 704.576 486.797 863.279 514.606 908.569C542.414 953.86 925.642 981.109 898.976 871.748C872.31 762.386 1058.97 901.573 1287.92 880.217C1402.58 949.81 1475.72 861.806 1577.05 863.279C1678.38 864.751 1646 673.277 1769.05 535.563C1892.09 397.849 1601.81 206.744 1729.43 254.98C1825.08 291.135 1798.75 71.4062 1788.22 -3.88251M63.5636 499.005C66.4851 505.488 69.3779 506.954 71.57 505.737C70.2148 503.45 67.5828 500.863 63.5636 499.005ZM1788.22 -3.88251C1784.7 -29.0432 1782.94 -38.0725 1788.09 -16.029C1789.16 -11.4906 1789.16 -7.45352 1788.22 -3.88251Z" stroke="#FED32E" stroke-width="2"/>
<path d="M73.1148 497.857C66.956 484.258 60.6685 448.262 60.6685 367.675C60.6685 219.608 70.8573 163.72 131.99 152.469C193.122 141.219 168.216 -46.0428 268.594 -62.7366C368.972 -79.4305 530.105 -255.805 649.351 -169.069C768.597 -82.3338 919.918 -218.062 1044.82 -96.4871C1169.73 25.0879 1208.98 59.9274 1208.98 -39.1472C1208.98 -138.222 1342.94 -83.7853 1386.34 -52.9379C1427.49 -23.6813 1764.31 66.947 1781.55 2.21994M73.1148 497.857C64.919 494.086 50.8998 493.355 30.1023 504.493C-8.52368 525.178 2.555 848.532 91.2347 774.499C179.914 700.465 492.369 856.879 519.916 901.517C547.464 946.155 927.088 973.011 900.673 865.226C874.258 757.442 1059.16 894.622 1285.96 873.573C1399.54 942.163 1472 855.428 1572.37 856.879C1672.75 858.331 1640.68 669.617 1762.56 533.889C1884.45 398.16 1596.9 209.81 1723.32 257.351C1818.07 292.984 1791.99 76.4232 1781.55 2.21994M73.1148 497.857C76.0089 504.247 78.8745 505.692 81.046 504.493C79.7035 502.238 77.0963 499.689 73.1148 497.857ZM1781.55 2.21994C1778.07 -22.578 1776.33 -31.4771 1781.43 -9.75148C1782.48 -5.27845 1782.49 -1.29959 1781.55 2.21994Z" stroke="#FED536" stroke-width="2"/>
<path d="M82.6662 496.71C76.5658 483.31 70.338 447.839 70.338 368.432C70.338 222.53 80.43 167.46 140.982 156.374C201.534 145.288 176.865 -39.2344 276.29 -55.6841C375.715 -72.1338 535.319 -245.928 653.433 -160.462C771.547 -74.9946 921.433 -208.738 1045.15 -88.9408C1168.87 30.8559 1207.75 65.1857 1207.75 -32.4397C1207.75 -130.065 1340.44 -76.4248 1383.42 -46.0286C1424.19 -17.1999 1757.81 72.1026 1774.89 8.32237M82.6662 496.71C74.5481 492.994 60.662 492.273 40.0619 503.248C1.80248 523.631 12.776 842.255 100.614 769.304C188.452 696.354 497.941 850.48 525.227 894.465C552.513 938.45 928.535 964.913 902.37 858.705C876.205 752.497 1059.36 887.671 1284 866.93C1396.51 934.517 1468.27 849.05 1567.7 850.48C1667.12 851.911 1635.35 665.957 1756.08 532.214C1876.81 398.471 1591.99 212.875 1717.21 259.721C1811.06 294.833 1785.22 81.4402 1774.89 8.32237M82.6662 496.71C85.5328 503.006 88.3712 504.43 90.522 503.248C89.1923 501.027 86.6099 498.515 82.6662 496.71ZM1774.89 8.32237C1771.44 -16.1129 1769.71 -24.8818 1774.77 -3.47392C1775.81 0.933673 1775.82 4.85433 1774.89 8.32237Z" stroke="#FED73E" stroke-width="2"/>
<path d="M92.2175 495.563C86.1756 482.362 80.0074 447.418 80.0074 369.19C80.0074 225.454 90.0028 171.201 149.975 160.28C209.947 149.359 185.514 -32.425 283.986 -48.6305C382.459 -64.836 540.533 -236.051 657.516 -151.853C774.498 -67.6543 922.947 -199.412 1045.48 -81.3936C1168.02 36.6248 1206.52 70.445 1206.52 -25.7312C1206.52 -121.907 1337.94 -69.0633 1380.51 -39.1183C1420.89 -10.7177 1751.31 77.2592 1768.23 14.4258M92.2175 495.563C84.1772 491.902 70.4242 491.193 50.0214 502.005C12.1286 522.085 22.997 835.979 109.993 764.111C196.99 692.243 503.513 844.082 530.538 887.414C557.562 930.746 929.981 956.816 904.067 852.185C878.153 747.553 1059.55 880.72 1282.04 860.287C1393.47 926.871 1464.55 842.673 1563.02 844.082C1661.49 845.491 1630.02 662.298 1749.6 530.541C1869.17 398.783 1587.08 215.942 1711.1 262.093C1804.05 296.683 1778.46 86.4582 1768.23 14.4258M92.2175 495.563C95.0566 501.766 97.8679 503.168 99.9981 502.005C98.6811 499.816 96.1234 497.341 92.2175 495.563ZM1768.23 14.4258C1764.81 -9.64671 1763.1 -18.2855 1768.11 2.80461C1769.14 7.14678 1769.15 11.0092 1768.23 14.4258Z" stroke="#FED846" stroke-width="2"/>
<path d="M101.769 494.415C95.7854 481.413 89.6769 446.996 89.6769 369.947C89.6769 228.377 99.5755 174.941 158.967 164.184C218.359 153.428 194.162 -25.6165 291.682 -41.5779C389.202 -57.5392 545.747 -226.174 661.598 -143.245C777.448 -60.3151 924.462 -190.087 1045.81 -73.8473C1167.16 42.3927 1205.29 75.7033 1205.29 -19.0236C1205.29 -113.751 1335.44 -61.7028 1377.6 -32.2091C1417.59 -4.23634 1744.81 82.4149 1761.56 20.5282M101.769 494.415C93.8063 490.81 80.1864 490.111 59.981 500.76C22.4548 520.538 33.218 829.702 119.373 758.917C205.528 688.132 509.086 837.683 535.849 880.362C562.612 923.041 931.427 948.718 905.764 845.663C880.101 742.609 1059.74 873.769 1280.08 853.644C1390.43 919.224 1460.82 836.295 1558.34 837.683C1655.86 839.071 1624.7 658.638 1743.12 528.866C1861.53 399.094 1582.17 219.008 1704.99 264.463C1797.04 298.533 1771.7 91.4752 1761.56 20.5282M101.769 494.415C104.58 500.525 107.365 501.906 109.474 500.76C108.17 498.604 105.637 496.167 101.769 494.415ZM1761.56 20.5282C1758.18 -3.18152 1756.49 -11.6901 1761.45 9.08217C1762.47 13.3589 1762.47 17.1631 1761.56 20.5282Z" stroke="#FEDA4E" stroke-width="2"/>
<path d="M111.32 493.268C105.395 480.465 99.3464 446.574 99.3464 370.703C99.3464 231.299 109.148 178.681 167.96 168.089C226.771 157.497 202.811 -18.8081 299.378 -34.5253C395.946 -50.2424 550.961 -216.297 665.68 -134.637C780.399 -52.9758 925.976 -180.763 1046.14 -66.301C1166.3 48.1607 1204.06 80.9616 1204.06 -12.3161C1204.06 -105.594 1332.94 -54.3423 1374.69 -25.2998C1414.28 2.24498 1738.31 87.5705 1754.9 26.6307M111.32 493.268C103.435 489.718 89.9485 489.029 69.9406 499.515C32.781 518.991 43.439 823.425 128.752 753.723C214.065 684.021 514.658 831.284 541.159 873.31C567.661 915.336 932.874 940.62 907.461 839.142C882.049 737.664 1059.94 866.818 1278.12 847.001C1387.39 911.578 1457.1 829.917 1553.66 831.284C1650.23 832.65 1619.37 654.978 1736.63 527.191C1853.89 399.404 1577.26 222.074 1698.88 266.834C1790.03 300.382 1764.94 96.4923 1754.9 26.6307M111.32 493.268C114.104 499.284 116.861 500.644 118.95 499.515C117.659 497.393 115.15 494.993 111.32 493.268ZM1754.9 26.6307C1751.55 3.28365 1749.87 -5.09475 1754.78 15.3597C1755.79 19.571 1755.8 23.3171 1754.9 26.6307Z" stroke="#FEDC56" stroke-width="2"/>
<path d="M120.871 492.12C115.005 479.516 109.016 446.152 109.016 371.46C109.016 234.222 118.721 182.421 176.952 171.994C235.184 161.566 211.46 -11.9997 307.074 -27.4727C402.689 -42.9456 556.175 -206.421 669.763 -126.029C783.35 -45.6365 927.49 -171.438 1046.47 -58.7547C1165.45 53.9286 1202.83 86.22 1202.83 -5.60854C1202.83 -97.437 1330.44 -46.9818 1371.77 -18.3905C1410.98 8.7263 1731.81 92.7261 1748.24 32.7331M120.871 492.12C113.065 488.625 99.7107 487.947 79.9001 498.271C43.1071 517.443 53.66 817.148 138.132 748.529C222.603 679.91 520.23 824.884 546.47 866.258C572.71 907.631 934.32 932.522 909.158 832.621C883.996 732.719 1060.13 859.867 1276.16 840.357C1384.36 903.931 1453.37 823.539 1548.98 824.884C1644.6 826.23 1614.05 651.318 1730.15 525.517C1846.25 399.715 1572.35 225.14 1692.77 269.204C1783.02 302.231 1758.17 101.509 1748.24 32.7331M120.871 492.12C123.628 498.043 126.358 499.382 128.426 498.271C127.148 496.181 124.664 493.818 120.871 492.12ZM1748.24 32.7331C1744.92 9.74883 1743.26 1.5006 1748.12 21.6373C1749.12 25.7832 1749.13 29.471 1748.24 32.7331Z" stroke="#FEDD5E" stroke-width="2"/>
<path d="M130.423 490.973C124.615 478.568 118.685 445.73 118.685 372.217C118.685 237.144 128.294 186.161 185.945 175.898C243.596 165.635 220.109 -5.19131 314.77 -20.4201C409.432 -35.6488 561.389 -196.544 673.845 -117.421C786.3 -38.2973 929.005 -162.113 1046.8 -51.2084C1164.59 59.6966 1201.6 91.4783 1201.6 1.09901C1201.6 -89.2803 1327.94 -39.6213 1368.86 -11.4813C1407.68 15.2076 1725.31 97.8818 1741.57 38.8355M130.423 490.973C122.694 487.533 109.473 486.866 89.8597 497.026C53.4333 515.896 63.8811 810.871 147.511 743.335C231.141 675.798 525.802 818.485 551.781 859.206C577.76 899.926 935.766 924.424 910.855 826.1C885.944 727.775 1060.32 852.915 1274.2 833.714C1381.32 896.284 1449.64 817.161 1544.31 818.485C1638.97 819.809 1608.72 647.658 1723.67 523.842C1838.61 400.026 1567.44 228.206 1686.66 271.575C1776.01 304.08 1751.41 106.526 1741.57 38.8355M130.423 490.973C133.152 496.802 135.855 498.12 137.902 497.026C136.636 494.97 134.178 492.644 130.423 490.973ZM1741.57 38.8355C1738.29 16.214 1736.65 8.09596 1741.46 27.9148C1742.45 31.9953 1742.46 35.6249 1741.57 38.8355Z" stroke="#FEDF66" stroke-width="2"/>
<path d="M139.974 489.826C134.225 477.62 128.355 445.309 128.355 372.974C128.355 240.068 137.867 189.902 194.938 179.804C252.009 169.706 228.757 1.61807 322.467 -13.3665C416.176 -28.351 566.603 -186.666 677.927 -108.812C789.251 -30.957 930.519 -152.788 1047.13 -43.6611C1163.74 65.4655 1200.37 96.7376 1200.37 7.80753C1200.37 -81.1225 1325.44 -32.2598 1365.95 -4.57101C1404.37 21.6899 1718.81 103.038 1734.91 44.9389M139.974 489.826C132.323 486.441 119.235 485.785 99.8192 495.782C63.7594 514.35 74.1021 804.595 156.89 738.141C239.678 671.688 531.374 812.087 557.092 852.154C582.809 892.222 937.213 916.327 912.552 819.579C887.892 722.831 1060.51 845.965 1272.24 827.072C1378.28 888.638 1445.92 810.784 1539.63 812.087C1633.34 813.39 1603.39 643.999 1717.18 522.169C1830.97 400.338 1562.53 231.273 1680.54 273.946C1769 305.931 1744.65 111.544 1734.91 44.9389M139.974 489.826C142.676 495.562 145.351 496.859 147.378 495.782C146.125 493.759 143.691 491.471 139.974 489.826ZM1734.91 44.9389C1731.65 22.6801 1730.03 14.6923 1734.8 34.1934C1735.78 38.2084 1735.78 41.7798 1734.91 44.9389Z" stroke="#FEE16E" stroke-width="2"/>
<path d="M149.525 488.679C143.834 476.671 138.024 444.887 138.024 373.731C138.024 242.99 147.439 193.642 203.93 183.709C260.421 173.775 237.406 8.42648 330.163 -6.31387C422.919 -21.0542 571.818 -176.789 682.009 -100.204C792.201 -23.6178 932.033 -143.463 1047.46 -36.1148C1162.88 71.2334 1199.14 101.996 1199.14 14.5151C1199.14 -72.9657 1322.94 -24.8994 1363.04 2.33826C1401.07 28.1712 1712.31 108.194 1728.25 51.0414M149.525 488.679C141.952 485.349 128.997 484.703 109.779 494.538C74.0856 512.803 84.3231 798.318 166.27 732.947C248.216 667.577 536.947 805.688 562.402 845.102C587.858 884.517 938.659 908.229 914.249 813.058C889.84 717.886 1060.71 839.014 1270.28 820.428C1375.24 880.992 1442.19 804.406 1534.95 805.688C1627.71 806.97 1598.07 640.339 1710.7 520.494C1823.33 400.648 1557.62 234.339 1674.43 276.317C1761.99 307.78 1737.89 116.561 1728.25 51.0414M149.525 488.679C152.2 494.321 154.848 495.596 156.854 494.538C155.614 492.547 153.205 490.296 149.525 488.679ZM1728.25 51.0414C1725.02 29.1453 1723.42 21.2876 1728.14 40.4709C1729.11 44.4205 1729.11 47.9337 1728.25 51.0414Z" stroke="#FEE276" stroke-width="2"/>
<path d="M159.077 487.531C153.444 475.723 147.694 444.465 147.694 374.488C147.694 245.913 157.012 197.382 212.923 187.613C268.833 177.844 246.055 15.2349 337.859 0.738731C429.662 -13.7574 577.032 -166.913 686.092 -91.5956C795.152 -16.2785 933.548 -134.138 1047.78 -28.5686C1162.02 77.0013 1197.92 107.254 1197.92 21.2226C1197.92 -64.809 1320.44 -17.5389 1360.12 9.24753C1397.77 34.6525 1705.81 113.35 1721.58 57.1438M159.077 487.531C151.581 484.257 138.759 483.622 119.738 493.293C84.4117 511.256 94.5441 792.04 175.649 727.753C256.754 663.466 542.519 799.289 567.713 838.05C592.908 876.812 940.105 900.131 915.946 806.537C891.787 712.942 1060.9 832.063 1268.32 813.785C1372.2 873.345 1438.47 798.028 1530.27 799.289C1622.08 800.549 1592.74 636.679 1704.22 518.819C1815.69 400.959 1552.71 237.405 1668.32 278.687C1754.98 309.629 1731.12 121.578 1721.58 57.1438M159.077 487.531C161.724 493.08 164.345 494.334 166.331 493.293C165.103 491.336 162.718 489.122 159.077 487.531ZM1721.58 57.1438C1718.39 35.6105 1716.8 27.883 1721.47 46.7485C1722.43 50.6326 1722.44 54.0877 1721.58 57.1438Z" stroke="#FEE47E" stroke-width="2"/>
<path d="M168.628 486.384C163.054 474.774 157.363 444.043 157.363 375.244C157.363 248.836 166.585 201.122 221.915 191.518C277.246 181.913 254.704 22.0433 345.555 7.79133C436.406 -6.46065 582.246 -157.036 690.174 -82.9876C798.102 -8.93925 935.062 -124.814 1048.11 -21.0223C1161.17 82.7693 1196.69 112.513 1196.69 27.9302C1196.69 -56.6522 1317.93 -10.1784 1357.21 16.1568C1394.46 41.1338 1699.31 118.505 1714.92 63.2463M168.628 486.384C161.21 483.164 148.522 482.54 129.698 492.049C94.7378 509.708 104.765 785.763 185.028 722.559C265.291 659.355 548.091 792.889 573.024 830.998C597.957 869.107 941.551 892.034 917.643 800.015C893.735 707.997 1061.09 825.111 1266.36 807.141C1369.17 865.698 1434.74 791.65 1525.59 792.889C1616.45 794.129 1587.41 633.019 1697.73 517.145C1808.05 401.27 1547.79 240.47 1662.21 281.058C1747.97 311.478 1724.36 126.595 1714.92 63.2463M168.628 486.384C171.247 491.839 173.841 493.072 175.807 492.049C174.591 490.124 172.232 487.948 168.628 486.384ZM1714.92 63.2463C1711.76 42.0757 1710.19 34.4783 1714.81 53.026C1715.76 56.8447 1715.77 60.2416 1714.92 63.2463Z" stroke="#FFE687" stroke-width="2"/>
<path d="M178.179 485.236C172.664 473.825 167.033 443.621 167.033 376.001C167.033 251.758 176.158 204.863 230.908 195.423C285.658 185.982 263.352 28.8517 353.251 14.8439C443.149 0.836148 587.46 -147.159 694.256 -74.3796C801.053 -1.59999 936.577 -115.489 1048.44 -13.476C1160.31 88.5372 1195.46 117.771 1195.46 34.6377C1195.46 -48.4954 1315.43 -2.81787 1354.3 23.0661C1391.16 47.6152 1692.81 123.661 1708.26 69.3487M178.179 485.236C170.839 482.072 158.284 481.458 139.657 490.804C105.064 508.161 114.986 779.486 194.408 717.365C273.829 655.243 553.663 786.49 578.335 823.946C603.006 861.401 942.998 883.936 919.34 793.494C895.683 703.053 1061.29 818.16 1264.4 800.498C1366.13 858.052 1431.02 785.272 1520.92 786.49C1610.81 787.708 1582.09 629.359 1691.25 515.47C1800.41 401.581 1542.88 243.536 1656.1 283.428C1740.96 313.328 1717.6 131.612 1708.26 69.3487M178.179 485.236C180.771 490.598 183.338 491.81 185.283 490.804C184.08 488.912 181.745 486.773 178.179 485.236ZM1708.26 69.3487C1705.13 48.5409 1703.58 41.0737 1708.15 59.3036C1709.09 63.0569 1709.1 66.3955 1708.26 69.3487Z" stroke="#FFE88F" stroke-width="2"/>
<path d="M187.731 484.089C182.273 472.877 176.702 443.198 176.702 376.758C176.702 254.681 185.73 208.603 239.9 199.327C294.07 190.052 272.001 35.6601 360.947 21.8965C449.892 8.13295 592.674 -137.282 698.339 -65.7716C804.004 5.73927 938.091 -106.165 1048.77 -5.92968C1159.45 94.3052 1194.23 123.029 1194.23 41.3453C1194.23 -40.3387 1312.93 4.54262 1351.39 29.9753C1387.86 54.0965 1686.31 128.817 1701.59 75.4512M187.731 484.089C180.468 480.979 168.046 480.377 149.617 489.559C115.39 506.614 125.207 773.209 203.787 712.171C282.367 651.132 559.236 780.091 583.645 816.894C608.055 853.696 944.444 875.838 921.037 786.973C897.631 698.108 1061.48 811.209 1262.44 793.855C1363.09 850.405 1427.29 778.894 1516.24 780.091C1605.18 781.288 1576.76 625.699 1684.77 513.795C1792.77 401.892 1537.97 246.602 1649.99 285.799C1733.95 315.177 1710.84 136.629 1701.59 75.4512M187.731 484.089C190.295 489.357 192.834 490.548 194.759 489.559C193.569 487.701 191.259 485.599 187.731 484.089ZM1701.59 75.4512C1698.5 55.006 1696.96 47.669 1701.49 65.5811C1702.42 69.269 1702.42 72.5494 1701.59 75.4512Z" stroke="#FFE997" stroke-width="2"/>
<path d="M197.282 482.942C191.883 471.929 186.371 442.777 186.371 377.515C186.371 257.604 195.303 212.344 248.893 203.233C302.483 194.122 280.65 42.4695 368.643 28.9501C456.636 15.4307 597.888 -127.405 702.421 -57.1626C806.954 13.0795 939.605 -96.8389 1049.1 1.61758C1158.6 100.074 1193 128.288 1193 48.0538C1193 -32.1809 1310.43 11.9041 1348.48 36.8856C1384.56 60.5788 1679.81 133.973 1694.93 81.5546M197.282 482.942C190.097 479.888 177.808 479.296 159.577 488.316C125.716 505.068 135.428 766.933 213.166 706.977C290.905 647.022 564.808 773.693 588.956 809.842C613.105 845.992 945.891 867.741 922.734 780.452C899.578 693.164 1061.67 804.258 1260.48 787.212C1360.05 842.759 1423.57 772.517 1511.56 773.693C1599.55 774.868 1571.44 622.04 1678.28 512.122C1785.13 402.203 1533.06 249.669 1643.88 288.17C1726.94 317.027 1704.07 141.647 1694.93 81.5546M197.282 482.942C199.819 488.117 202.331 489.287 204.235 488.316C203.058 486.49 200.772 484.425 197.282 482.942ZM1694.93 81.5546C1691.87 61.4722 1690.35 54.2654 1694.82 71.8597C1695.75 75.4821 1695.75 78.7043 1694.93 81.5546Z" stroke="#FFEB9F" stroke-width="2"/>
<path d="M206.833 481.794C201.493 470.98 196.041 442.355 196.041 378.272C196.041 260.527 204.876 216.084 257.885 207.137C310.895 198.191 289.298 49.2779 376.339 36.0027C463.379 22.7275 603.102 -117.528 706.503 -48.5546C809.905 20.4188 941.12 -87.5143 1049.43 9.16388C1157.74 105.842 1191.77 133.547 1191.77 54.7613C1191.77 -24.0241 1307.93 19.2646 1345.56 43.7949C1381.25 67.0601 1673.31 139.129 1688.27 87.657M206.833 481.794C199.727 478.796 187.57 478.214 169.536 487.071C136.042 503.521 145.649 760.656 222.546 701.783C299.442 642.911 570.38 767.294 594.267 802.79C618.154 838.287 947.337 859.643 924.431 773.931C901.526 688.22 1061.86 797.307 1258.52 780.569C1357.02 835.113 1419.84 766.139 1506.88 767.294C1593.92 768.448 1566.11 618.38 1671.8 510.447C1777.49 402.514 1528.15 252.735 1637.77 290.541C1719.93 318.876 1697.31 146.664 1688.27 87.657M206.833 481.794C209.343 486.876 211.828 488.025 213.711 487.071C212.547 485.278 210.286 483.251 206.833 481.794ZM1688.27 87.657C1685.24 67.9374 1683.74 60.8607 1688.16 78.1372C1689.07 81.6942 1689.08 84.8582 1688.27 87.657Z" stroke="#FFEDA7" stroke-width="2"/>
<path d="M216.385 480.647C211.103 470.032 205.71 441.933 205.71 379.029C205.71 263.449 214.449 219.824 266.878 211.042C319.307 202.26 297.947 56.0863 384.035 43.0553C470.123 30.0243 608.316 -107.651 710.586 -39.9466C812.855 27.758 942.634 -78.1896 1049.76 16.7102C1156.88 111.61 1190.54 138.805 1190.54 61.4689C1190.54 -15.8674 1305.43 26.6251 1342.65 50.7041C1377.95 73.5414 1666.81 144.285 1681.6 93.7594M216.385 480.647C209.356 477.703 197.332 477.132 179.496 485.827C146.369 501.973 155.87 754.379 231.925 696.589C307.98 638.799 575.952 760.894 599.578 795.738C623.203 830.582 948.783 851.545 926.128 767.41C903.474 683.275 1062.06 790.356 1256.56 773.925C1353.98 827.466 1416.12 759.761 1502.2 760.894C1588.29 762.028 1560.78 614.72 1665.32 508.773C1769.85 402.825 1523.24 255.801 1631.66 292.911C1712.92 320.726 1690.55 151.681 1681.6 93.7594M216.385 480.647C218.867 485.635 221.324 486.762 223.187 485.827C222.035 484.067 219.799 482.077 216.385 480.647ZM1681.6 93.7594C1678.61 74.4025 1677.12 67.4561 1681.5 84.4148C1682.4 87.9064 1682.41 91.0122 1681.6 93.7594Z" stroke="#FFEEAF" stroke-width="2"/>
<path d="M225.936 479.499C220.713 469.083 215.38 441.511 215.38 379.786C215.38 266.372 224.021 223.564 275.87 214.947C327.72 206.33 306.596 62.8947 391.731 50.1079C476.866 37.3211 613.53 -97.7745 714.668 -31.3386C815.806 35.0973 944.148 -68.865 1050.09 24.2565C1156.03 117.378 1189.31 144.063 1189.31 68.1764C1189.31 -7.71059 1302.93 33.9856 1339.74 57.6134C1374.65 80.0227 1660.31 149.44 1674.94 99.8619M225.936 479.499C218.985 476.611 207.095 476.051 189.455 484.582C156.695 500.426 166.091 748.102 241.304 691.395C316.518 634.688 581.524 754.495 604.889 788.686C628.253 822.877 950.229 843.447 927.826 760.889C905.422 678.33 1062.25 783.405 1254.6 767.282C1350.94 819.819 1412.39 753.383 1497.53 754.495C1582.66 755.607 1555.46 611.06 1658.83 507.098C1762.21 403.136 1518.33 258.867 1625.55 295.281C1705.91 322.575 1683.79 156.698 1674.94 99.8619M225.936 479.499C228.391 484.394 230.821 485.5 232.663 484.582C231.524 482.855 229.313 480.902 225.936 479.499ZM1674.94 99.8619C1671.98 80.8677 1670.51 74.0514 1674.84 90.6924C1675.73 94.1185 1675.73 97.1661 1674.94 99.8619Z" stroke="#FFF0B7" stroke-width="2"/>
<path d="M235.487 478.352C230.322 468.135 225.049 441.089 225.049 380.542C225.049 269.295 233.594 227.304 284.863 218.851C336.132 210.399 315.245 69.7032 399.427 57.1605C483.609 44.6179 618.744 -87.8977 718.75 -22.7306C818.756 42.4366 945.663 -59.5403 1050.42 31.8028C1155.17 123.146 1188.08 149.322 1188.08 74.884C1188.08 0.446182 1300.43 41.3461 1336.83 64.5227C1371.34 86.504 1653.81 154.596 1668.28 105.964M235.487 478.352C228.614 475.518 216.857 474.969 199.415 483.337C167.021 498.879 176.312 741.825 250.684 686.201C325.055 630.577 587.097 748.096 610.199 781.634C633.302 815.172 951.676 835.349 929.523 754.367C907.369 673.386 1062.44 776.453 1252.64 760.639C1347.9 812.173 1408.67 747.005 1492.85 748.096C1577.03 749.187 1550.13 607.4 1652.35 505.423C1754.57 403.446 1513.42 261.933 1619.44 297.652C1698.9 324.424 1677.03 161.715 1668.28 105.964M235.487 478.352C237.915 483.153 240.318 484.238 242.139 483.337C241.013 481.643 238.826 479.728 235.487 478.352ZM1668.28 105.964C1665.35 87.3329 1663.89 80.6468 1668.18 96.9699C1669.06 100.331 1669.06 103.32 1668.28 105.964Z" stroke="#FFF2BF" stroke-width="2"/>
<path d="M245.039 477.205C239.932 467.187 234.719 440.668 234.719 381.3C234.719 272.218 243.167 231.045 293.856 222.757C344.544 214.469 323.893 76.5125 407.123 64.2141C490.353 51.9157 623.958 -78.02 722.833 -14.1216C821.707 49.7768 947.177 -50.2147 1050.74 39.35C1154.31 128.915 1186.85 154.581 1186.85 81.5925C1186.85 8.60393 1297.93 48.7075 1333.91 71.4329C1368.04 92.9863 1647.31 159.752 1661.61 112.068M245.039 477.205C238.243 474.427 226.619 473.888 209.374 482.094C177.347 497.333 186.533 735.549 260.063 681.008C333.593 626.467 592.669 741.698 615.51 774.583C638.351 807.468 953.122 827.252 931.22 747.847C909.317 668.442 1062.63 769.503 1250.68 753.996C1344.86 804.527 1404.94 740.628 1488.17 741.698C1571.4 742.767 1544.8 603.741 1645.87 503.75C1746.93 403.758 1508.51 265 1613.33 300.023C1691.89 326.274 1670.26 166.733 1661.61 112.068M245.039 477.205C247.438 481.913 249.814 482.977 251.615 482.094C250.502 480.433 248.34 478.555 245.039 477.205ZM1661.61 112.068C1658.72 93.7991 1657.28 87.2431 1661.51 103.248C1662.38 106.544 1662.39 109.475 1661.61 112.068Z" stroke="#FFF3C7" stroke-width="2"/>
<path d="M254.59 476.058C249.542 466.238 244.388 440.246 244.388 382.057C244.388 275.141 252.74 234.785 302.848 226.662C352.957 218.538 332.542 83.321 414.819 71.2667C497.096 59.2125 629.172 -68.1433 726.915 -5.51361C824.657 57.1161 948.692 -40.89 1051.07 46.8963C1153.46 134.683 1185.62 159.839 1185.62 88.3C1185.62 16.7607 1295.43 56.068 1331 78.3422C1364.74 99.4676 1640.81 164.908 1654.95 118.17M254.59 476.058C247.872 473.335 236.381 472.807 219.334 480.849C187.673 495.786 196.754 729.271 269.442 675.814C342.131 622.356 598.241 735.299 620.821 767.531C643.401 799.763 954.568 819.154 932.917 741.326C911.265 663.497 1062.83 762.552 1248.72 747.353C1341.83 796.88 1401.22 734.25 1483.49 735.299C1565.77 736.347 1539.48 600.081 1639.39 502.075C1739.29 404.069 1503.6 268.066 1607.22 302.394C1684.88 328.124 1663.5 171.75 1654.95 118.17M254.59 476.058C256.962 480.672 259.311 481.715 261.091 480.849C259.991 479.221 257.854 477.38 254.59 476.058ZM1654.95 118.17C1652.09 100.264 1650.67 93.8384 1654.85 109.526C1655.71 112.756 1655.72 115.629 1654.95 118.17Z" stroke="#FFF5CF" stroke-width="2"/>
<path d="M264.141 474.91C259.152 465.29 254.058 439.824 254.058 382.813C254.058 278.063 262.312 238.525 311.841 230.566C361.369 222.607 341.191 90.1294 422.515 78.3193C503.839 66.5092 634.386 -58.2665 730.997 3.09439C827.608 64.4553 950.206 -31.5654 1051.4 54.4426C1152.6 140.451 1184.4 165.098 1184.4 95.0076C1184.4 24.9175 1292.93 63.4285 1328.09 85.2514C1361.43 105.949 1634.31 170.064 1648.29 124.273M264.141 474.91C257.501 472.242 246.143 471.725 229.293 479.604C197.999 494.238 206.975 722.994 278.822 670.619C350.668 618.244 603.813 728.899 626.132 760.478C648.45 792.058 956.015 811.056 934.614 734.804C913.213 658.553 1063.02 755.6 1246.76 740.709C1338.79 789.233 1397.49 727.872 1478.81 728.899C1560.14 729.926 1534.15 596.421 1632.9 500.401C1731.65 404.38 1498.69 271.131 1601.11 304.764C1677.87 329.973 1656.74 176.767 1648.29 124.273M264.141 474.91C266.486 479.431 268.808 480.453 270.567 479.604C269.479 478.01 267.367 476.206 264.141 474.91ZM1648.29 124.273C1645.46 106.729 1644.05 100.434 1648.19 115.804C1649.04 118.968 1649.05 121.783 1648.29 124.273Z" stroke="#FFF7D7" stroke-width="2"/>
<path d="M273.693 473.762C268.761 464.341 263.727 439.402 263.727 383.57C263.727 280.986 271.885 242.265 320.833 234.471C369.781 226.677 349.84 96.9378 430.211 85.3719C510.583 73.806 639.6 -48.3898 735.079 11.7024C830.559 71.7946 951.72 -22.2408 1051.73 61.9889C1151.74 146.219 1183.17 170.356 1183.17 101.715C1183.17 33.0742 1290.43 70.789 1325.18 92.1607C1358.13 112.43 1627.81 175.219 1641.62 130.375M273.693 473.762C267.13 471.15 255.905 470.643 239.253 478.36C208.325 492.691 217.196 716.717 288.201 665.425C359.206 614.133 609.385 722.5 631.442 753.426C653.499 784.352 957.461 802.958 936.311 728.283C915.16 653.608 1063.21 748.649 1244.8 734.066C1335.75 781.587 1393.76 721.495 1474.14 722.5C1554.51 723.506 1528.82 592.761 1626.42 498.726C1724.01 404.69 1493.78 274.197 1595 307.135C1670.86 331.822 1649.98 181.784 1641.62 130.375M273.693 473.762C276.01 478.19 278.304 479.19 280.043 478.36C278.968 476.798 276.881 475.032 273.693 473.762ZM1641.62 130.375C1638.83 113.195 1637.44 107.029 1641.53 122.081C1642.37 125.18 1642.37 127.937 1641.62 130.375Z" stroke="#FFF8DF" stroke-width="2"/>
<path d="M283.244 472.615C278.371 463.392 273.396 438.98 273.396 384.327C273.396 283.908 281.458 246.005 329.826 238.376C378.194 230.746 358.488 103.746 437.907 92.4245C517.326 81.1028 644.814 -38.5131 739.162 20.3104C833.509 79.1339 953.235 -12.9161 1052.06 69.5352C1150.89 151.986 1181.94 175.614 1181.94 108.423C1181.94 41.231 1287.93 78.1495 1322.26 99.07C1354.83 118.912 1621.32 180.375 1634.96 136.477M283.244 472.615C276.759 470.057 265.668 469.562 249.213 477.115C218.652 491.144 227.417 710.44 297.58 660.231C367.744 610.022 614.958 716.101 636.753 746.374C658.549 776.647 958.907 794.86 938.008 721.762C917.108 648.663 1063.41 741.698 1242.85 727.423C1332.71 773.94 1390.04 715.117 1469.46 716.101C1548.88 717.085 1523.5 589.101 1619.94 497.051C1716.37 405.001 1488.86 277.263 1588.88 309.505C1663.85 333.671 1643.21 186.802 1634.96 136.477M283.244 472.615C285.534 476.949 287.801 477.928 289.519 477.115C288.457 475.586 286.394 473.857 283.244 472.615ZM1634.96 136.477C1632.2 119.66 1630.83 113.625 1634.86 128.359C1635.7 131.392 1635.7 134.091 1634.96 136.477Z" stroke="#FFFAE7" stroke-width="2"/>
<path d="M292.795 471.468C287.981 462.445 283.066 438.558 283.066 385.084C283.066 286.832 291.031 249.747 338.818 242.281C386.606 234.816 367.137 110.556 445.603 99.4781C524.069 88.4006 650.029 -28.6354 743.244 28.9194C836.46 86.4741 954.749 -3.59048 1052.39 77.0825C1150.03 157.755 1180.71 180.874 1180.71 115.131C1180.71 49.3888 1285.43 85.511 1319.35 105.98C1351.53 125.394 1614.82 185.532 1628.3 142.581M292.795 471.468C286.389 468.966 275.43 468.481 259.172 475.872C228.978 489.598 237.638 704.164 306.96 655.038C376.282 605.912 620.53 709.703 642.064 739.323C663.598 768.943 960.354 786.764 939.705 715.242C919.056 643.72 1063.6 734.747 1240.89 720.78C1329.68 766.294 1386.31 708.74 1464.78 709.703C1543.25 710.666 1518.17 585.442 1613.45 495.378C1708.73 405.313 1483.95 280.33 1582.77 311.877C1656.84 335.522 1636.45 191.819 1628.3 142.581M292.795 471.468C295.058 475.709 297.298 476.667 298.995 475.872C297.946 474.376 295.908 472.684 292.795 471.468ZM1628.3 142.581C1625.57 126.126 1624.21 120.221 1628.2 134.637C1629.02 137.605 1629.03 140.245 1628.3 142.581Z" stroke="#FFFCEF" stroke-width="2"/>
<path d="M302.347 470.321C297.591 461.496 292.735 438.136 292.735 385.841C292.735 289.755 300.603 253.487 347.811 246.186C395.018 238.885 375.786 117.364 453.299 106.531C530.813 95.6974 655.243 -18.7586 747.326 37.5274C839.41 93.8134 956.263 5.73417 1052.72 84.6287C1149.17 163.523 1179.48 186.132 1179.48 121.839C1179.48 57.5455 1282.93 92.8715 1316.44 112.889C1348.22 131.875 1608.32 190.687 1621.63 148.683M302.347 470.321C296.018 467.874 285.192 467.399 269.132 474.627C239.304 488.051 247.859 697.887 316.339 649.844C384.819 601.8 626.102 703.304 647.375 732.271C668.647 761.238 961.8 778.666 941.402 708.72C921.004 638.775 1063.79 727.796 1238.93 714.137C1326.64 758.648 1382.59 702.362 1460.1 703.304C1537.62 704.246 1512.85 581.782 1606.97 493.703C1701.09 405.624 1479.04 283.396 1576.66 314.247C1649.83 337.371 1629.69 196.837 1621.63 148.683M302.347 470.321C304.582 474.468 306.794 475.405 308.471 474.627C307.435 473.164 305.421 471.51 302.347 470.321ZM1621.63 148.683C1618.94 132.591 1617.6 126.816 1621.54 140.915C1622.35 143.817 1622.36 146.399 1621.63 148.683Z" stroke="#FFFDF7" stroke-width="2"/>
</g>
<defs>
<linearGradient id="paint0_linear_517_182" x1="891.047" y1="-246.674" x2="891.047" y2="986.326" gradientUnits="userSpaceOnUse">
<stop stop-color="#FECB06"/>
<stop offset="1" stop-color="#987904"/>
</linearGradient>
</defs>
</svg>
